PathFileType	4	(X/Y/Z)	RBDS05static.trc
DataRate	CameraRate	NumFrames	NumMarkers	Units	OrigDataRate	OrigDataStartFrame	OrigNumFrames
150.000000	150.000000	4	48	mm	150.000000	75	150
Frame#	Time	L.Ankle			L.Ankle.Medial			L.ASIS			L.GTR			L.Heel.Bottom			L.Heel.Lateral			L.Heel.Top			L.HF			L.Iliac.Crest			L.Knee			L.Knee.Medial			L.MT1			L.MT2			L.MT5			L.PSIS			L.Shank.Bottom.Lateral			L.Shank.Bottom.Medial			L.Shank.Top.Lateral			L.Shank.Top.Medial			L.Thigh.Bottom.Lateral			L.Thigh.Bottom.Medial			L.Thigh.Top.Lateral			L.Thigh.Top.Medial			L.TT			R.Ankle			R.Ankle.Medial			R.ASIS			R.GTR			R.Heel.Bottom			R.Heel.Lateral			R.Heel.Top			R.HF			R.Iliac.Crest			R.Knee			R.Knee.Medial			R.MT1			R.MT2			R.MT5			R.PSIS			R.Shank.Bottom.Lateral			R.Shank.Bottom.Medial			R.Shank.Top.Lateral			R.Shank.Top.Medial			R.Thigh.Bottom.Lateral			R.Thigh.Bottom.Medial			R.Thigh.Top.Lateral			R.Thigh.Top.Medial			R.TT			
		X1	Y1	Z1	X2	Y2	Z2	X3	Y3	Z3	X4	Y4	Z4	X5	Y5	Z5	X6	Y6	Z6	X7	Y7	Z7	X8	Y8	Z8	X9	Y9	Z9	X10	Y10	Z10	X11	Y11	Z11	X12	Y12	Z12	X13	Y13	Z13	X14	Y14	Z14	X15	Y15	Z15	X16	Y16	Z16	X17	Y17	Z17	X18	Y18	Z18	X19	Y19	Z19	X20	Y20	Z20	X21	Y21	Z21	X22	Y22	Z22	X23	Y23	Z23	X24	Y24	Z24	X25	Y25	Z25	X26	Y26	Z26	X27	Y27	Z27	X28	Y28	Z28	X29	Y29	Z29	X30	Y30	Z30	X31	Y31	Z31	X32	Y32	Z32	X33	Y33	Z33	X34	Y34	Z34	X35	Y35	Z35	X36	Y36	Z36	X37	Y37	Z37	X38	Y38	Z38	X39	Y39	Z39	X40	Y40	Z40	X41	Y41	Z41	X42	Y42	Z42	X43	Y43	Z43	X44	Y44	Z44	X45	Y45	Z45	X46	Y46	Z46	X47	Y47	Z47	X48	Y48	Z48	

76	0.5	700.1754760742188	104.8233184814453	1043.68408203125	726.2194213867188	110.0048065185547	1122.644165039063	833.64697265625	978.992431640625	1106.652099609375	754.155517578125	888.7237548828125	1058.942626953125	637.7300415039063	38.23988723754883	1080.569580078125	671.2855834960938	57.38348007202148	1039.933227539063	648.785400390625	87.42859649658203	1082.875732421875	732.11572265625	449.6081848144531	1050.77734375	761.428466796875	1038.073364257813	1067.4091796875	741.3758544921875	500.736572265625	1057.966430664063	742.768798828125	488.4206848144531	1175.403686523438	840.9822387695313	56.9290771484375	1127.265625	851.3736572265625	66.83850860595703	1074.553466796875	820.4967041015625	50.90250778198242	1022.160217285156	675.2086181640625	1002.855041503906	1170.737182617188	709.7108764648438	185.3727874755859	1037.817993164063	669.55908203125	182.7784423828125	1069.32861328125	706.1753540039063	265.7052612304688	1032.938110351563	665.4918212890625	267.4909973144531	1066.967895507813	756.6417236328125	631.0077514648438	1043.130615234375	694.3571166992188	624.3212890625	1080.9326171875	740.4635620117188	740.5736694335938	1043.334594726563	686.9115600585938	734.3573608398438	1086.072509765625	789.4910278320313	421.9893188476563	1097.53173828125	692.6856079101563	107.1994934082031	1408.699829101563	716.4794311523438	118.4845199584961	1334.605224609375	826.483642578125	987.5850219726563	1336.703735351563	742.7232055664063	894.0768432617188	1383.319213867188	631.021240234375	39.41585159301758	1371.57568359375	659.0330200195313	53.8154296875	1409.653686523438	640.8263549804688	87.30983734130859	1371.903076171875	721.11279296875	460.7611999511719	1389.63037109375	767.2451782226563	1030.9189453125	1362.312255859375	734.5270385742188	513.9706420898438	1384.125244140625	756.14794921875	491.7945556640625	1273.296142578125	834.6707153320313	58.18365097045898	1329.225463867188	841.526123046875	72.70948028564453	1370.12939453125	814.9630737304688	52.68469619750977	1434.4755859375	677.1380615234375	1010.598022460938	1258.890869140625	693.1181640625	195.5597991943359	1411.948364257813	657.076904296875	194.0787200927734	1370.584838867188	687.78857421875	276.595703125	1410.906860351563	654.0835571289063	273.8923034667969	1369.255493164063	753.4010009765625	607.88720703125	1399.598754882813	690.3182373046875	601.7662353515625	1361.194213867188	739.2406005859375	717.7517700195313	1400.21923828125	681.09228515625	711.699951171875	1360.720825195313	783.4453735351563	429.4863891601563	1355.70751953125	
77	0.5066666666666667	700.1726684570313	104.8256225585938	1043.694458007813	726.2208862304688	110.0085830688477	1122.641967773438	833.6710205078125	978.9887084960938	1106.640380859375	754.1771850585938	888.7131958007813	1058.944091796875	637.7349243164063	38.24039840698242	1080.5693359375	671.29248046875	57.3863639831543	1039.940063476563	648.77734375	87.44046783447266	1082.87109375	732.129150390625	449.5962829589844	1050.7646484375	761.4483032226563	1038.0625	1067.3955078125	741.4028930664063	500.7425231933594	1057.972290039063	742.7853393554688	488.404541015625	1175.394775390625	840.9862670898438	56.92949676513672	1127.25927734375	851.3814086914063	66.84115600585938	1074.5546875	820.4981079101563	50.90159225463867	1022.1640625	675.225341796875	1002.857299804688	1170.742553710938	709.716552734375	185.3740081787109	1037.821533203125	669.5689086914063	182.7713928222656	1069.330322265625	706.1658935546875	265.7487487792969	1032.9501953125	665.5057983398438	267.48779296875	1066.970947265625	756.66455078125	631.00390625	1043.133911132813	694.3787841796875	624.3226928710938	1080.927612304688	740.4846801757813	740.5772094726563	1043.335693359375	686.9366455078125	734.3521118164063	1086.074829101563	789.5028686523438	421.9882202148438	1097.51611328125	692.6817016601563	107.2034149169922	1408.70849609375	716.482421875	118.4844284057617	1334.595092773438	826.5060424804688	987.5780029296875	1336.708129882813	742.73828125	894.0819091796875	1383.327270507813	631.0225830078125	39.41954040527344	1371.572387695313	659.0355834960938	53.81758499145508	1409.652709960938	640.8257446289063	87.31012725830078	1371.911499023438	721.12646484375	460.7600402832031	1389.630004882813	767.2685546875	1030.915405273438	1362.309204101563	734.5383911132813	513.9699096679688	1384.14404296875	756.15869140625	491.77099609375	1273.296630859375	834.6754760742188	58.18890380859375	1329.228515625	841.5116577148438	72.72029113769531	1370.128051757813	814.9638671875	52.68290328979492	1434.472900390625	677.166015625	1010.603271484375	1258.883666992188	693.1201782226563	195.5597534179688	1411.941772460938	657.0814819335938	194.0761413574219	1370.574829101563	687.7998046875	276.5956420898438	1410.908935546875	654.096435546875	273.8927001953125	1369.262939453125	753.4185791015625	607.8935546875	1399.589599609375	690.335205078125	601.7680053710938	1361.208984375	739.2557983398438	717.7473754882813	1400.220092773438	681.1095581054688	711.6969604492188	1360.726440429688	783.4518432617188	429.4875183105469	1355.695678710938	
78	0.5133333333333334	700.1767578125	104.8256759643555	1043.702392578125	726.2159423828125	110.0185470581055	1122.649780273438	833.703369140625	978.9819946289063	1106.644775390625	754.1922607421875	888.7168579101563	1058.938720703125	637.7315063476563	38.24274444580078	1080.573120117188	671.2931518554688	57.3862419128418	1039.939697265625	648.79150390625	87.43045043945313	1082.88525390625	732.1493530273438	449.6005554199219	1050.7685546875	761.4702758789063	1038.05517578125	1067.391235351563	741.4300537109375	500.7362670898438	1057.981689453125	742.7973022460938	488.4202270507813	1175.41943359375	840.9942626953125	56.93557739257813	1127.272827148438	851.3681640625	66.83979034423828	1074.54931640625	820.4937133789063	50.89833068847656	1022.163330078125	675.2506103515625	1002.855712890625	1170.743530273438	709.7275390625	185.3650207519531	1037.819091796875	669.5784912109375	182.7705230712891	1069.329956054688	706.172119140625	265.7480163574219	1032.950805664063	665.518310546875	267.4955444335938	1066.971435546875	756.692138671875	630.999267578125	1043.13916015625	694.3931884765625	624.326416015625	1080.9267578125	740.5092163085938	740.5697021484375	1043.329956054688	686.966796875	734.3579711914063	1086.06201171875	789.5067749023438	421.9864501953125	1097.531005859375	692.6882934570313	107.192268371582	1408.701538085938	716.4903564453125	118.4834899902344	1334.605102539063	826.5241088867188	987.5845947265625	1336.709838867188	742.7579345703125	894.0783081054688	1383.315307617188	631.0235595703125	39.42475891113281	1371.581176757813	659.0294799804688	53.82321929931641	1409.652954101563	640.8277587890625	87.30887603759766	1371.901611328125	721.146484375	460.7610473632813	1389.630249023438	767.2894287109375	1030.913818359375	1362.303588867188	734.5558471679688	513.9712524414063	1384.141479492188	756.1824951171875	491.7874450683594	1273.302124023438	834.6665649414063	58.18679428100586	1329.228515625	841.5133666992188	72.71928405761719	1370.132202148438	814.9654541015625	52.68100357055664	1434.467895507813	677.1793823242188	1010.605773925781	1258.884399414063	693.1272583007813	195.5501861572266	1411.944213867188	657.0844116210938	194.0812530517578	1370.5703125	687.811767578125	276.5976867675781	1410.914184570313	654.1127319335938	273.8940734863281	1369.258666992188	753.4345703125	607.8924560546875	1399.594360351563	690.3533935546875	601.7574462890625	1361.196166992188	739.2781372070313	717.747314453125	1400.224975585938	681.1224365234375	711.6964111328125	1360.726440429688	783.452880859375	429.49560546875	1355.719116210938	
79	0.52	700.1821899414063	104.8307876586914	1043.684448242188	726.214599609375	110.0082855224609	1122.643310546875	833.7362060546875	978.97998046875	1106.626098632813	754.2232666015625	888.7174072265625	1058.93798828125	637.7406005859375	38.24178695678711	1080.572143554688	671.2987060546875	57.38647842407227	1039.933471679688	648.7843627929688	87.42787170410156	1082.877319335938	732.1723022460938	449.6015319824219	1050.773681640625	761.4896850585938	1038.0361328125	1067.3876953125	741.4445190429688	500.7432556152344	1057.97900390625	742.80029296875	488.4204406738281	1175.414306640625	840.9856567382813	56.93833160400391	1127.272705078125	851.3729248046875	66.83847045898438	1074.553955078125	820.4995727539063	50.89633560180664	1022.166687011719	675.2756958007813	1002.854064941406	1170.736938476563	709.734619140625	185.3644409179688	1037.821533203125	669.5932006835938	182.7791595458984	1069.328735351563	706.1898193359375	265.7441711425781	1032.945922851563	665.5302734375	267.4955139160156	1066.9765625	756.7223510742188	631.0039672851563	1043.141845703125	694.4276123046875	624.3181762695313	1080.929565429688	740.5325927734375	740.5662231445313	1043.325439453125	686.994873046875	734.3530883789063	1086.068115234375	789.5181274414063	421.9917907714844	1097.528076171875	692.6812744140625	107.2029571533203	1408.698364257813	716.4906616210938	118.4929580688477	1334.599487304688	826.5482788085938	987.5813598632813	1336.709350585938	742.7804565429688	894.0676879882813	1383.310180664063	631.03125	39.43094635009766	1371.584228515625	659.034423828125	53.8199577331543	1409.650634765625	640.8300170898438	87.30947113037109	1371.8935546875	721.1546020507813	460.7655029296875	1389.631103515625	767.2982177734375	1030.910400390625	1362.313354492188	734.57763671875	513.9612426757813	1384.133911132813	756.189208984375	491.7919616699219	1273.303344726563	834.6676025390625	58.18755722045898	1329.217041015625	841.5191650390625	72.72032165527344	1370.130615234375	814.9620971679688	52.68286895751953	1434.4833984375	677.2022094726563	1010.611267089844	1258.89453125	693.1336669921875	195.5564117431641	1411.944091796875	657.0964965820313	194.08544921875	1370.5634765625	687.81298828125	276.597412109375	1410.912109375	654.11865234375	273.8938293457031	1369.25439453125	753.4517211914063	607.8897705078125	1399.595458984375	690.3759765625	601.75537109375	1361.193969726563	739.2911376953125	717.7484130859375	1400.226196289063	681.1400146484375	711.6956787109375	1360.729736328125	783.4752197265625	429.5083923339844	1355.718872070313	
